%TF.GenerationSoftware,KiCad,Pcbnew,9.0.2*%
%TF.CreationDate,2025-06-08T10:11:38+09:00*%
%TF.ProjectId,SHTXX_Sensor_Board,53485458-585f-4536-956e-736f725f426f,B*%
%TF.SameCoordinates,Original*%
%TF.FileFunction,Copper,L2,Bot*%
%TF.FilePolarity,Positive*%
%FSLAX46Y46*%
G04 Gerber Fmt 4.6, Leading zero omitted, Abs format (unit mm)*
G04 Created by KiCad (PCBNEW 9.0.2) date 2025-06-08 10:11:38*
%MOMM*%
%LPD*%
G01*
G04 APERTURE LIST*
%TA.AperFunction,ViaPad*%
%ADD10C,0.600000*%
%TD*%
%TA.AperFunction,Conductor*%
%ADD11C,0.200000*%
%TD*%
G04 APERTURE END LIST*
D10*
%TO.N,GND*%
X140400000Y-88000000D03*
X144200000Y-88300000D03*
X154800000Y-88100000D03*
X139300000Y-94900000D03*
X138200000Y-88000000D03*
X138200000Y-95900000D03*
X159800000Y-92100000D03*
X154700000Y-95500000D03*
X140700000Y-95600000D03*
X144200000Y-95600000D03*
X154200000Y-90300000D03*
X139300000Y-91700000D03*
%TO.N,/SDA*%
X142800000Y-91500000D03*
X145700000Y-92480000D03*
%TD*%
D11*
%TO.N,/SDA*%
X144720000Y-91500000D02*
X142800000Y-91500000D01*
X145700000Y-92480000D02*
X144720000Y-91500000D01*
%TD*%
%TA.AperFunction,Conductor*%
%TO.N,GND*%
G36*
X161642539Y-87320185D02*
G01*
X161688294Y-87372989D01*
X161699500Y-87424500D01*
X161699500Y-96575500D01*
X161679815Y-96642539D01*
X161627011Y-96688294D01*
X161575500Y-96699500D01*
X137424500Y-96699500D01*
X137357461Y-96679815D01*
X137311706Y-96627011D01*
X137300500Y-96575500D01*
X137300500Y-94250000D01*
X140300000Y-94250000D01*
X141800000Y-94250000D01*
X141800000Y-92750000D01*
X140300000Y-92750000D01*
X140300000Y-94250000D01*
X137300500Y-94250000D01*
X137300500Y-91434108D01*
X142299500Y-91434108D01*
X142299500Y-91565891D01*
X142333608Y-91693187D01*
X142366554Y-91750250D01*
X142399500Y-91807314D01*
X142492686Y-91900500D01*
X142606814Y-91966392D01*
X142734108Y-92000500D01*
X142734110Y-92000500D01*
X142865890Y-92000500D01*
X142865892Y-92000500D01*
X142993186Y-91966392D01*
X143107314Y-91900500D01*
X143170995Y-91836819D01*
X143232318Y-91803334D01*
X143258676Y-91800500D01*
X144544167Y-91800500D01*
X144611206Y-91820185D01*
X144631848Y-91836819D01*
X145163181Y-92368152D01*
X145196666Y-92429475D01*
X145199500Y-92455833D01*
X145199500Y-92545891D01*
X145233608Y-92673187D01*
X145266554Y-92730250D01*
X145299500Y-92787314D01*
X145392686Y-92880500D01*
X145506814Y-92946392D01*
X145634108Y-92980500D01*
X145634110Y-92980500D01*
X145765890Y-92980500D01*
X145765892Y-92980500D01*
X145893186Y-92946392D01*
X146007314Y-92880500D01*
X146100500Y-92787314D01*
X146166392Y-92673186D01*
X146200500Y-92545892D01*
X146200500Y-92414108D01*
X146166392Y-92286814D01*
X146100500Y-92172686D01*
X146007314Y-92079500D01*
X145950250Y-92046554D01*
X145893187Y-92013608D01*
X145829539Y-91996554D01*
X145765892Y-91979500D01*
X145675833Y-91979500D01*
X145608794Y-91959815D01*
X145588152Y-91943181D01*
X144904512Y-91259541D01*
X144904507Y-91259537D01*
X144887987Y-91249999D01*
X144887985Y-91249999D01*
X144858915Y-91233215D01*
X144835990Y-91219979D01*
X144810513Y-91213152D01*
X144759562Y-91199500D01*
X144759560Y-91199500D01*
X143258676Y-91199500D01*
X143191637Y-91179815D01*
X143170995Y-91163181D01*
X143107316Y-91099502D01*
X143107314Y-91099500D01*
X143050250Y-91066554D01*
X142993187Y-91033608D01*
X142929539Y-91016554D01*
X142865892Y-90999500D01*
X142734108Y-90999500D01*
X142606812Y-91033608D01*
X142492686Y-91099500D01*
X142492683Y-91099502D01*
X142399502Y-91192683D01*
X142399500Y-91192686D01*
X142333608Y-91306812D01*
X142299500Y-91434108D01*
X137300500Y-91434108D01*
X137300500Y-91250000D01*
X140300000Y-91250000D01*
X141800000Y-91250000D01*
X141800000Y-89750000D01*
X140300000Y-89750000D01*
X140300000Y-91250000D01*
X137300500Y-91250000D01*
X137300500Y-87424500D01*
X137320185Y-87357461D01*
X137372989Y-87311706D01*
X137424500Y-87300500D01*
X161575500Y-87300500D01*
X161642539Y-87320185D01*
G37*
%TD.AperFunction*%
%TD*%
M02*
