%TF.GenerationSoftware,KiCad,Pcbnew,9.0.2*%
%TF.CreationDate,2025-06-08T10:11:38+09:00*%
%TF.ProjectId,SHTXX_Sensor_Board,53485458-585f-4536-956e-736f725f426f,B*%
%TF.SameCoordinates,Original*%
%TF.FileFunction,Legend,Bot*%
%TF.FilePolarity,Positive*%
%FSLAX46Y46*%
G04 Gerber Fmt 4.6, Leading zero omitted, Abs format (unit mm)*
G04 Created by KiCad (PCBNEW 9.0.2) date 2025-06-08 10:11:38*
%MOMM*%
%LPD*%
G01*
G04 APERTURE LIST*
%ADD10C,0.000000*%
G04 APERTURE END LIST*
D10*
%TO.C,G\u002A\u002A\u002A*%
G36*
X155058581Y-90572138D02*
G01*
X155112272Y-90605594D01*
X155149049Y-90649769D01*
X155169431Y-90703719D01*
X155170609Y-90759691D01*
X155153334Y-90812980D01*
X155118359Y-90858883D01*
X155066433Y-90892696D01*
X155050174Y-90898946D01*
X154991560Y-90907133D01*
X154935219Y-90892045D01*
X154881513Y-90853758D01*
X154869309Y-90840964D01*
X154838568Y-90789389D01*
X154828938Y-90732850D01*
X154840571Y-90675746D01*
X154873615Y-90622477D01*
X154892941Y-90603141D01*
X154945115Y-90571180D01*
X155001595Y-90560756D01*
X155058581Y-90572138D01*
G37*
G36*
X151939843Y-91032704D02*
G01*
X151983210Y-91056573D01*
X152021513Y-91092820D01*
X152048835Y-91135525D01*
X152059258Y-91178772D01*
X152057947Y-91192522D01*
X152042062Y-91234666D01*
X152012432Y-91275829D01*
X151974473Y-91307769D01*
X151970576Y-91310059D01*
X151936680Y-91324965D01*
X151906969Y-91331061D01*
X151874094Y-91324840D01*
X151830727Y-91300971D01*
X151792424Y-91264725D01*
X151765102Y-91222019D01*
X151754680Y-91178772D01*
X151760901Y-91145898D01*
X151784770Y-91102531D01*
X151821016Y-91064228D01*
X151863722Y-91036906D01*
X151906969Y-91026483D01*
X151939843Y-91032704D01*
G37*
G36*
X152157112Y-91381533D02*
G01*
X152213274Y-91423713D01*
X152213502Y-91423942D01*
X152250250Y-91475524D01*
X152266655Y-91532661D01*
X152263637Y-91591070D01*
X152242118Y-91646464D01*
X152203017Y-91694559D01*
X152147255Y-91731070D01*
X152141141Y-91733819D01*
X152091230Y-91749751D01*
X152045581Y-91748778D01*
X151993957Y-91730887D01*
X151938515Y-91694599D01*
X151899932Y-91646049D01*
X151879485Y-91589774D01*
X151877988Y-91530103D01*
X151896255Y-91471364D01*
X151935100Y-91417886D01*
X151976917Y-91384976D01*
X152035603Y-91362095D01*
X152096778Y-91360970D01*
X152157112Y-91381533D01*
G37*
G36*
X153580821Y-89977790D02*
G01*
X153624188Y-90001659D01*
X153662491Y-90037905D01*
X153689813Y-90080611D01*
X153700236Y-90123857D01*
X153698925Y-90137607D01*
X153683041Y-90179751D01*
X153653410Y-90220914D01*
X153615451Y-90252855D01*
X153611555Y-90255144D01*
X153577659Y-90270050D01*
X153547947Y-90276146D01*
X153515072Y-90269925D01*
X153471706Y-90246056D01*
X153433402Y-90209810D01*
X153406080Y-90167104D01*
X153395658Y-90123857D01*
X153401879Y-90090983D01*
X153425748Y-90047616D01*
X153461994Y-90009313D01*
X153504700Y-89981991D01*
X153547947Y-89971568D01*
X153580821Y-89977790D01*
G37*
G36*
X152410579Y-90933004D02*
G01*
X152464901Y-90972478D01*
X152503540Y-91025545D01*
X152521953Y-91084261D01*
X152520596Y-91143941D01*
X152500283Y-91200256D01*
X152461828Y-91248878D01*
X152406044Y-91285479D01*
X152394815Y-91290252D01*
X152358000Y-91302346D01*
X152328934Y-91307191D01*
X152303133Y-91303792D01*
X152256625Y-91287165D01*
X152211669Y-91261306D01*
X152178562Y-91231403D01*
X152164264Y-91211046D01*
X152138803Y-91150220D01*
X152135244Y-91087581D01*
X152153372Y-91027033D01*
X152192968Y-90972478D01*
X152230508Y-90942424D01*
X152289227Y-90917977D01*
X152350636Y-90914837D01*
X152410579Y-90933004D01*
G37*
G36*
X153371723Y-90464153D02*
G01*
X153426046Y-90503627D01*
X153464685Y-90556694D01*
X153483098Y-90615410D01*
X153481740Y-90675090D01*
X153461427Y-90731405D01*
X153422972Y-90780027D01*
X153367188Y-90816628D01*
X153355960Y-90821401D01*
X153319145Y-90833495D01*
X153290079Y-90838340D01*
X153264277Y-90834941D01*
X153217769Y-90818314D01*
X153172814Y-90792455D01*
X153139706Y-90762552D01*
X153125409Y-90742195D01*
X153099947Y-90681369D01*
X153096389Y-90618730D01*
X153114516Y-90558182D01*
X153154112Y-90503627D01*
X153191653Y-90473573D01*
X153250371Y-90449126D01*
X153311780Y-90445986D01*
X153371723Y-90464153D01*
G37*
G36*
X151094360Y-89215978D02*
G01*
X151152800Y-89246958D01*
X151201723Y-89291787D01*
X151237659Y-89347308D01*
X151257132Y-89410366D01*
X151256672Y-89477804D01*
X151246692Y-89518076D01*
X151212921Y-89584157D01*
X151160752Y-89636481D01*
X151091662Y-89673299D01*
X151054457Y-89682711D01*
X150988434Y-89682731D01*
X150922917Y-89665150D01*
X150864618Y-89632132D01*
X150820249Y-89585839D01*
X150796454Y-89542869D01*
X150776809Y-89473211D01*
X150777773Y-89404294D01*
X150797991Y-89339756D01*
X150836110Y-89283231D01*
X150890776Y-89238356D01*
X150960636Y-89208766D01*
X150962826Y-89208189D01*
X151029878Y-89202003D01*
X151094360Y-89215978D01*
G37*
G36*
X154071564Y-90763186D02*
G01*
X154130003Y-90794166D01*
X154178927Y-90838995D01*
X154214862Y-90894517D01*
X154234336Y-90957574D01*
X154233875Y-91025012D01*
X154223895Y-91065284D01*
X154190124Y-91131365D01*
X154137955Y-91183689D01*
X154068866Y-91220507D01*
X154031661Y-91229919D01*
X153965637Y-91229939D01*
X153900120Y-91212358D01*
X153841822Y-91179340D01*
X153797453Y-91133047D01*
X153773657Y-91090078D01*
X153754013Y-91020419D01*
X153754976Y-90951503D01*
X153775194Y-90886964D01*
X153813313Y-90830439D01*
X153867980Y-90785564D01*
X153937839Y-90755974D01*
X153940030Y-90755397D01*
X154007081Y-90749211D01*
X154071564Y-90763186D01*
G37*
G36*
X154540414Y-90505318D02*
G01*
X154598854Y-90536298D01*
X154647778Y-90581127D01*
X154683713Y-90636649D01*
X154703187Y-90699706D01*
X154702726Y-90767144D01*
X154692746Y-90807416D01*
X154658975Y-90873497D01*
X154606806Y-90925821D01*
X154537717Y-90962639D01*
X154500511Y-90972051D01*
X154434488Y-90972071D01*
X154368971Y-90954490D01*
X154310673Y-90921472D01*
X154266304Y-90875179D01*
X154242508Y-90832210D01*
X154222864Y-90762551D01*
X154223827Y-90693635D01*
X154244045Y-90629096D01*
X154282164Y-90572571D01*
X154336830Y-90527696D01*
X154406690Y-90498106D01*
X154408881Y-90497529D01*
X154475932Y-90491343D01*
X154540414Y-90505318D01*
G37*
G36*
X152461993Y-91716929D02*
G01*
X152536556Y-91739499D01*
X152598435Y-91780076D01*
X152645396Y-91836429D01*
X152675210Y-91906327D01*
X152685643Y-91987540D01*
X152682532Y-92033179D01*
X152660955Y-92108655D01*
X152619621Y-92172200D01*
X152559456Y-92222585D01*
X152481387Y-92258582D01*
X152441811Y-92264791D01*
X152388066Y-92262701D01*
X152332887Y-92252626D01*
X152286475Y-92235761D01*
X152227847Y-92196865D01*
X152177421Y-92139157D01*
X152146703Y-92069034D01*
X152136323Y-91987540D01*
X152140297Y-91936545D01*
X152162873Y-91862002D01*
X152203461Y-91800141D01*
X152259830Y-91753193D01*
X152329748Y-91723388D01*
X152410983Y-91712957D01*
X152461993Y-91716929D01*
G37*
G36*
X153911182Y-90314143D02*
G01*
X153962676Y-90341108D01*
X154005104Y-90381111D01*
X154034876Y-90430641D01*
X154048405Y-90486187D01*
X154042101Y-90544236D01*
X154026146Y-90584582D01*
X153986378Y-90638409D01*
X153929810Y-90675972D01*
X153918581Y-90680746D01*
X153881766Y-90692840D01*
X153852700Y-90697685D01*
X153826899Y-90694285D01*
X153780390Y-90677659D01*
X153735435Y-90651800D01*
X153702328Y-90621897D01*
X153699972Y-90618788D01*
X153679195Y-90583389D01*
X153663299Y-90544236D01*
X153657357Y-90489482D01*
X153670853Y-90432367D01*
X153701652Y-90380290D01*
X153746831Y-90338118D01*
X153803470Y-90310716D01*
X153854208Y-90303729D01*
X153911182Y-90314143D01*
G37*
G36*
X154006485Y-92034444D02*
G01*
X154066991Y-92056374D01*
X154119803Y-92092868D01*
X154161804Y-92141520D01*
X154189878Y-92199919D01*
X154200906Y-92265659D01*
X154191774Y-92336330D01*
X154188581Y-92346300D01*
X154163191Y-92395183D01*
X154125463Y-92441888D01*
X154081694Y-92479639D01*
X154038179Y-92501659D01*
X153991607Y-92511484D01*
X153917550Y-92510286D01*
X153850046Y-92486601D01*
X153789281Y-92440474D01*
X153774947Y-92424954D01*
X153736388Y-92363650D01*
X153718071Y-92297188D01*
X153719478Y-92229684D01*
X153740090Y-92165254D01*
X153779391Y-92108016D01*
X153836863Y-92062086D01*
X153874857Y-92043914D01*
X153941401Y-92029488D01*
X154006485Y-92034444D01*
G37*
G36*
X154481505Y-91437146D02*
G01*
X154538395Y-91456559D01*
X154606511Y-91503519D01*
X154658714Y-91564667D01*
X154690785Y-91636689D01*
X154701702Y-91717951D01*
X154696701Y-91773365D01*
X154671639Y-91848335D01*
X154627000Y-91912686D01*
X154564468Y-91964213D01*
X154485725Y-92000714D01*
X154446166Y-92006925D01*
X154392406Y-92004832D01*
X154337220Y-91994740D01*
X154290813Y-91977847D01*
X154223544Y-91931981D01*
X154171923Y-91871218D01*
X154139920Y-91799122D01*
X154128940Y-91717951D01*
X154139009Y-91639766D01*
X154170255Y-91567344D01*
X154221675Y-91505730D01*
X154292248Y-91456559D01*
X154348338Y-91437310D01*
X154414891Y-91430729D01*
X154481505Y-91437146D01*
G37*
G36*
X150565674Y-93477632D02*
G01*
X150635073Y-93499111D01*
X150698517Y-93534610D01*
X150753046Y-93583506D01*
X150795701Y-93645175D01*
X150823522Y-93718993D01*
X150833550Y-93804337D01*
X150823717Y-93891219D01*
X150793417Y-93969706D01*
X150743507Y-94036187D01*
X150674854Y-94089517D01*
X150588325Y-94128547D01*
X150547102Y-94137879D01*
X150473230Y-94138171D01*
X150397175Y-94121232D01*
X150325255Y-94088741D01*
X150263784Y-94042374D01*
X150218733Y-93986209D01*
X150184047Y-93911541D01*
X150167638Y-93830270D01*
X150170520Y-93747801D01*
X150193711Y-93669543D01*
X150232936Y-93602357D01*
X150287718Y-93544384D01*
X150351342Y-93503549D01*
X150420849Y-93479227D01*
X150493279Y-93470796D01*
X150565674Y-93477632D01*
G37*
G36*
X154865112Y-90990075D02*
G01*
X154936798Y-91018357D01*
X154949603Y-91026220D01*
X154998707Y-91071415D01*
X155034625Y-91129635D01*
X155054223Y-91194453D01*
X155054364Y-91259438D01*
X155044384Y-91299710D01*
X155010613Y-91365790D01*
X154958445Y-91418115D01*
X154889355Y-91454933D01*
X154837054Y-91466050D01*
X154769552Y-91461981D01*
X154703345Y-91440455D01*
X154645569Y-91402993D01*
X154635096Y-91392402D01*
X154606793Y-91349598D01*
X154584405Y-91295603D01*
X154572019Y-91239507D01*
X154571529Y-91234847D01*
X154571036Y-91197856D01*
X154579400Y-91163192D01*
X154599039Y-91120178D01*
X154616801Y-91090113D01*
X154666577Y-91035099D01*
X154726733Y-90999432D01*
X154794001Y-90984095D01*
X154865112Y-90990075D01*
G37*
G36*
X149847577Y-90615669D02*
G01*
X149932728Y-90635001D01*
X150008391Y-90673263D01*
X150079388Y-90732426D01*
X150120014Y-90777898D01*
X150165481Y-90851349D01*
X150191317Y-90932575D01*
X150199491Y-91026395D01*
X150194784Y-91093342D01*
X150170323Y-91186949D01*
X150126249Y-91269312D01*
X150063990Y-91338563D01*
X149984973Y-91392837D01*
X149890625Y-91430266D01*
X149834596Y-91441408D01*
X149742136Y-91441654D01*
X149651387Y-91420809D01*
X149566455Y-91380002D01*
X149491449Y-91320365D01*
X149450822Y-91274893D01*
X149405355Y-91201442D01*
X149379519Y-91120216D01*
X149371345Y-91026395D01*
X149374692Y-90964236D01*
X149394023Y-90879085D01*
X149432285Y-90803422D01*
X149491449Y-90732426D01*
X149536920Y-90691799D01*
X149610372Y-90646332D01*
X149691598Y-90620497D01*
X149785418Y-90612322D01*
X149847577Y-90615669D01*
G37*
G36*
X149779275Y-91600496D02*
G01*
X149872352Y-91628759D01*
X149958145Y-91675140D01*
X150033901Y-91737663D01*
X150096869Y-91814350D01*
X150144299Y-91903227D01*
X150173438Y-92002317D01*
X150178820Y-92041687D01*
X150176701Y-92139500D01*
X150154014Y-92234326D01*
X150112785Y-92323129D01*
X150055042Y-92402871D01*
X149982812Y-92470515D01*
X149898122Y-92523023D01*
X149803000Y-92557358D01*
X149704892Y-92570403D01*
X149606318Y-92562400D01*
X149512533Y-92534527D01*
X149426235Y-92488589D01*
X149350121Y-92426392D01*
X149286888Y-92349742D01*
X149239234Y-92260444D01*
X149209857Y-92160304D01*
X149202663Y-92091295D01*
X149210833Y-91993683D01*
X149239097Y-91900606D01*
X149285478Y-91814813D01*
X149348001Y-91739057D01*
X149424688Y-91676089D01*
X149513565Y-91628659D01*
X149612654Y-91599520D01*
X149681663Y-91592325D01*
X149779275Y-91600496D01*
G37*
G36*
X153059409Y-91004486D02*
G01*
X153132441Y-91023236D01*
X153200460Y-91060396D01*
X153259780Y-91112281D01*
X153306715Y-91175205D01*
X153337578Y-91245483D01*
X153348685Y-91319427D01*
X153347437Y-91334749D01*
X153340721Y-91371591D01*
X153330135Y-91412803D01*
X153324807Y-91428321D01*
X153292182Y-91488024D01*
X153244801Y-91543528D01*
X153188844Y-91588520D01*
X153130491Y-91616688D01*
X153112981Y-91621812D01*
X153054737Y-91633154D01*
X153000660Y-91631654D01*
X152938835Y-91617351D01*
X152924691Y-91612635D01*
X152859758Y-91577497D01*
X152802536Y-91525454D01*
X152756887Y-91461660D01*
X152726667Y-91391267D01*
X152715736Y-91319427D01*
X152717270Y-91292230D01*
X152736020Y-91219197D01*
X152773180Y-91151178D01*
X152825065Y-91091858D01*
X152887989Y-91044924D01*
X152958266Y-91014060D01*
X153032211Y-91002953D01*
X153059409Y-91004486D01*
G37*
G36*
X150090086Y-92724660D02*
G01*
X150163045Y-92746242D01*
X150214061Y-92775389D01*
X150274075Y-92824319D01*
X150325302Y-92881590D01*
X150360731Y-92940318D01*
X150362609Y-92944696D01*
X150382157Y-93013760D01*
X150388867Y-93090625D01*
X150382654Y-93166209D01*
X150363433Y-93231430D01*
X150329655Y-93291084D01*
X150269542Y-93360277D01*
X150196219Y-93414278D01*
X150114193Y-93449151D01*
X150081649Y-93455857D01*
X150010894Y-93458954D01*
X149937686Y-93450169D01*
X149873107Y-93430367D01*
X149844396Y-93415535D01*
X149781283Y-93368882D01*
X149725194Y-93309179D01*
X149683251Y-93243442D01*
X149660803Y-93180036D01*
X149649970Y-93099655D01*
X149655148Y-93019016D01*
X149676530Y-92946625D01*
X149686464Y-92926642D01*
X149734196Y-92857926D01*
X149796305Y-92797553D01*
X149865741Y-92752747D01*
X149928338Y-92730476D01*
X150009025Y-92719467D01*
X150090086Y-92724660D01*
G37*
G36*
X150233206Y-89560691D02*
G01*
X150314602Y-89588003D01*
X150334606Y-89598696D01*
X150402682Y-89648645D01*
X150461434Y-89712115D01*
X150503812Y-89781881D01*
X150507683Y-89791065D01*
X150524483Y-89856401D01*
X150529490Y-89930580D01*
X150522695Y-90003907D01*
X150504088Y-90066686D01*
X150470311Y-90126340D01*
X150410197Y-90195533D01*
X150336874Y-90249534D01*
X150254849Y-90284407D01*
X150222304Y-90291113D01*
X150151549Y-90294210D01*
X150078342Y-90285426D01*
X150013763Y-90265623D01*
X149985052Y-90250791D01*
X149921939Y-90204138D01*
X149865849Y-90144435D01*
X149823906Y-90078699D01*
X149801458Y-90015292D01*
X149790625Y-89934911D01*
X149795803Y-89854272D01*
X149817186Y-89781881D01*
X149827119Y-89761898D01*
X149874851Y-89693182D01*
X149936960Y-89632809D01*
X150006396Y-89588003D01*
X150060851Y-89567218D01*
X150146525Y-89553763D01*
X150233206Y-89560691D01*
G37*
G36*
X151155271Y-90008624D02*
G01*
X151228861Y-90033412D01*
X151248865Y-90044105D01*
X151316941Y-90094054D01*
X151375694Y-90157524D01*
X151418071Y-90227290D01*
X151421943Y-90236473D01*
X151438742Y-90301809D01*
X151443749Y-90375989D01*
X151436954Y-90449316D01*
X151418348Y-90512094D01*
X151384570Y-90571749D01*
X151324456Y-90640942D01*
X151251134Y-90694943D01*
X151169108Y-90729816D01*
X151136563Y-90736521D01*
X151065808Y-90739618D01*
X150992601Y-90730834D01*
X150928022Y-90711031D01*
X150899311Y-90696200D01*
X150836198Y-90649546D01*
X150780108Y-90589844D01*
X150738166Y-90524107D01*
X150717599Y-90468671D01*
X150705046Y-90385393D01*
X150710433Y-90300246D01*
X150733870Y-90220983D01*
X150761664Y-90172759D01*
X150810601Y-90114728D01*
X150869569Y-90063817D01*
X150931557Y-90026906D01*
X150993585Y-90007362D01*
X151074020Y-89999879D01*
X151155271Y-90008624D01*
G37*
G36*
X151156513Y-91102859D02*
G01*
X151246361Y-91124873D01*
X151329701Y-91164549D01*
X151404117Y-91219467D01*
X151467190Y-91287212D01*
X151516503Y-91365364D01*
X151549638Y-91451506D01*
X151564177Y-91543222D01*
X151557703Y-91638092D01*
X151553735Y-91657421D01*
X151519899Y-91757822D01*
X151467236Y-91845998D01*
X151397632Y-91919869D01*
X151312969Y-91977356D01*
X151215129Y-92016380D01*
X151180254Y-92023930D01*
X151101625Y-92029646D01*
X151019812Y-92023366D01*
X150945824Y-92005532D01*
X150935087Y-92001565D01*
X150848348Y-91956316D01*
X150771179Y-91892874D01*
X150707939Y-91815508D01*
X150662984Y-91728485D01*
X150649776Y-91688484D01*
X150633348Y-91590660D01*
X150638118Y-91494700D01*
X150662547Y-91403248D01*
X150705094Y-91318946D01*
X150764222Y-91244435D01*
X150838388Y-91182357D01*
X150926056Y-91135355D01*
X151025683Y-91106071D01*
X151062576Y-91100923D01*
X151156513Y-91102859D01*
G37*
G36*
X154654168Y-90995364D02*
G01*
X154635413Y-91010154D01*
X154603686Y-91033159D01*
X154562561Y-91061723D01*
X154560943Y-91062827D01*
X154415211Y-91169299D01*
X154289051Y-91277313D01*
X154178788Y-91391056D01*
X154080745Y-91514715D01*
X153991244Y-91652474D01*
X153906609Y-91808520D01*
X153894493Y-91832865D01*
X153868757Y-91885683D01*
X153848059Y-91929708D01*
X153834270Y-91960909D01*
X153829257Y-91975256D01*
X153829059Y-91978418D01*
X153823397Y-91987540D01*
X153822225Y-91983879D01*
X153820368Y-91961283D01*
X153818881Y-91921504D01*
X153817894Y-91868533D01*
X153817536Y-91806362D01*
X153817536Y-91625184D01*
X153904184Y-91510158D01*
X153912856Y-91498728D01*
X154017734Y-91373581D01*
X154126319Y-91268757D01*
X154241937Y-91181375D01*
X154367913Y-91108555D01*
X154372074Y-91106483D01*
X154410895Y-91088291D01*
X154458848Y-91067234D01*
X154510841Y-91045378D01*
X154561781Y-91024785D01*
X154606577Y-91007520D01*
X154640135Y-90995648D01*
X154657363Y-90991232D01*
X154654168Y-90995364D01*
G37*
G36*
X152079859Y-91266004D02*
G01*
X152105441Y-91274538D01*
X152143396Y-91288174D01*
X152189231Y-91305241D01*
X152238450Y-91324068D01*
X152286559Y-91342984D01*
X152329064Y-91360317D01*
X152379102Y-91382109D01*
X152476077Y-91428633D01*
X152570659Y-91479102D01*
X152656186Y-91529874D01*
X152725996Y-91577306D01*
X152794797Y-91633580D01*
X152871581Y-91705189D01*
X152948109Y-91784193D01*
X153018134Y-91864136D01*
X153075412Y-91938562D01*
X153135684Y-92024378D01*
X153058208Y-92134893D01*
X153029122Y-92175700D01*
X153002382Y-92211793D01*
X152983120Y-92236182D01*
X152974238Y-92245061D01*
X152973894Y-92244931D01*
X152964771Y-92233324D01*
X152946706Y-92205651D01*
X152922147Y-92165779D01*
X152893540Y-92117573D01*
X152859522Y-92061118D01*
X152729953Y-91873867D01*
X152581327Y-91698459D01*
X152412779Y-91533939D01*
X152223443Y-91379355D01*
X152193894Y-91357188D01*
X152146808Y-91321785D01*
X152108463Y-91292852D01*
X152082203Y-91272916D01*
X152071369Y-91264500D01*
X152071145Y-91264244D01*
X152079859Y-91266004D01*
G37*
G36*
X153563881Y-90359161D02*
G01*
X153575423Y-90394772D01*
X153589752Y-90445066D01*
X153606151Y-90507098D01*
X153623901Y-90577923D01*
X153642284Y-90654596D01*
X153660582Y-90734173D01*
X153678075Y-90813709D01*
X153694047Y-90890259D01*
X153707778Y-90960878D01*
X153718550Y-91022622D01*
X153718779Y-91024059D01*
X153727444Y-91093432D01*
X153734562Y-91179409D01*
X153739987Y-91276290D01*
X153743573Y-91378374D01*
X153745173Y-91479960D01*
X153744641Y-91575346D01*
X153741830Y-91658834D01*
X153736593Y-91724721D01*
X153727227Y-91795298D01*
X153694786Y-91969606D01*
X153648660Y-92143800D01*
X153588138Y-92319237D01*
X153512509Y-92497271D01*
X153421062Y-92679258D01*
X153313084Y-92866553D01*
X153187864Y-93060511D01*
X153044691Y-93262487D01*
X152882852Y-93473837D01*
X152701637Y-93695916D01*
X152657155Y-93748397D01*
X152617361Y-93794291D01*
X152584961Y-93830556D01*
X152562470Y-93854378D01*
X152552401Y-93862944D01*
X152550463Y-93862000D01*
X152536220Y-93847526D01*
X152511096Y-93817613D01*
X152477032Y-93774877D01*
X152435963Y-93721934D01*
X152389827Y-93661399D01*
X152340562Y-93595890D01*
X152290105Y-93528021D01*
X152240395Y-93460409D01*
X152193368Y-93395670D01*
X152150962Y-93336420D01*
X152115115Y-93285275D01*
X152087764Y-93244851D01*
X152070847Y-93217763D01*
X152066301Y-93206629D01*
X152068155Y-93205071D01*
X152086574Y-93192556D01*
X152120079Y-93171379D01*
X152164623Y-93144064D01*
X152216157Y-93113137D01*
X152303921Y-93059661D01*
X152478689Y-92943694D01*
X152637124Y-92823963D01*
X152779974Y-92699028D01*
X152907986Y-92567449D01*
X153021909Y-92427783D01*
X153122491Y-92278592D01*
X153210478Y-92118434D01*
X153286619Y-91945870D01*
X153351661Y-91759457D01*
X153406352Y-91557757D01*
X153451440Y-91339329D01*
X153487673Y-91102731D01*
X153515797Y-90846523D01*
X153536562Y-90569266D01*
X153540727Y-90501751D01*
X153544734Y-90440192D01*
X153548196Y-90390376D01*
X153550845Y-90356188D01*
X153552409Y-90341515D01*
X153555845Y-90341178D01*
X153563881Y-90359161D01*
G37*
G36*
X150806206Y-89803999D02*
G01*
X150799623Y-89828215D01*
X150785931Y-89862750D01*
X150785885Y-89862853D01*
X150761772Y-89926480D01*
X150736444Y-90009696D01*
X150710709Y-90108744D01*
X150685371Y-90219865D01*
X150661238Y-90339302D01*
X150639117Y-90463295D01*
X150619813Y-90588088D01*
X150604133Y-90709921D01*
X150599821Y-90754992D01*
X150594488Y-90840140D01*
X150590836Y-90939187D01*
X150588837Y-91047469D01*
X150588461Y-91160324D01*
X150589678Y-91273092D01*
X150592461Y-91381109D01*
X150596778Y-91479714D01*
X150602602Y-91564246D01*
X150609903Y-91630041D01*
X150614714Y-91662012D01*
X150657229Y-91888688D01*
X150711578Y-92095319D01*
X150777835Y-92282115D01*
X150856072Y-92449287D01*
X150946364Y-92597046D01*
X150951198Y-92603738D01*
X150981644Y-92641303D01*
X151027477Y-92693100D01*
X151087322Y-92757665D01*
X151159805Y-92833533D01*
X151243550Y-92919239D01*
X151337182Y-93013320D01*
X151340306Y-93016434D01*
X151417797Y-93094349D01*
X151493999Y-93172160D01*
X151566336Y-93247150D01*
X151632229Y-93316603D01*
X151689102Y-93377804D01*
X151734377Y-93428038D01*
X151765477Y-93464589D01*
X151838824Y-93559526D01*
X151981652Y-93769438D01*
X152109040Y-93993788D01*
X152221955Y-94234366D01*
X152321365Y-94492962D01*
X152375206Y-94648269D01*
X151767788Y-94648269D01*
X151160370Y-94648269D01*
X151153236Y-94504683D01*
X151142469Y-94367550D01*
X151115000Y-94191381D01*
X151072305Y-94027042D01*
X151072263Y-94026908D01*
X151040818Y-93935069D01*
X151005610Y-93848318D01*
X150964582Y-93762968D01*
X150915677Y-93675332D01*
X150856837Y-93581724D01*
X150786006Y-93478456D01*
X150701126Y-93361841D01*
X150687536Y-93343547D01*
X150619021Y-93250539D01*
X150562621Y-93172284D01*
X150516280Y-93105688D01*
X150477946Y-93047659D01*
X150445563Y-92995104D01*
X150417079Y-92944931D01*
X150390438Y-92894046D01*
X150364543Y-92840500D01*
X150313721Y-92716944D01*
X150273642Y-92588285D01*
X150243641Y-92451095D01*
X150223049Y-92301947D01*
X150211199Y-92137412D01*
X150207424Y-91954065D01*
X150207477Y-91935446D01*
X150218584Y-91666415D01*
X150248325Y-91390219D01*
X150295672Y-91111360D01*
X150359596Y-90834344D01*
X150439065Y-90563675D01*
X150533051Y-90303855D01*
X150640525Y-90059390D01*
X150655575Y-90028670D01*
X150696248Y-89949686D01*
X150732630Y-89885056D01*
X150763578Y-89836617D01*
X150787948Y-89806207D01*
X150804597Y-89795662D01*
X150806206Y-89803999D01*
G37*
%TD*%
M02*
