%TF.GenerationSoftware,KiCad,Pcbnew,9.0.2*%
%TF.CreationDate,2025-06-08T10:11:38+09:00*%
%TF.ProjectId,SHTXX_Sensor_Board,53485458-585f-4536-956e-736f725f426f,B*%
%TF.SameCoordinates,Original*%
%TF.FileFunction,Legend,Top*%
%TF.FilePolarity,Positive*%
%FSLAX46Y46*%
G04 Gerber Fmt 4.6, Leading zero omitted, Abs format (unit mm)*
G04 Created by KiCad (PCBNEW 9.0.2) date 2025-06-08 10:11:38*
%MOMM*%
%LPD*%
G01*
G04 APERTURE LIST*
%ADD10C,0.200000*%
%ADD11C,0.120000*%
%ADD12C,0.254000*%
G04 APERTURE END LIST*
D10*
X151226816Y-88467219D02*
X151560149Y-89467219D01*
X151560149Y-89467219D02*
X151893482Y-88467219D01*
X152798244Y-89371980D02*
X152750625Y-89419600D01*
X152750625Y-89419600D02*
X152607768Y-89467219D01*
X152607768Y-89467219D02*
X152512530Y-89467219D01*
X152512530Y-89467219D02*
X152369673Y-89419600D01*
X152369673Y-89419600D02*
X152274435Y-89324361D01*
X152274435Y-89324361D02*
X152226816Y-89229123D01*
X152226816Y-89229123D02*
X152179197Y-89038647D01*
X152179197Y-89038647D02*
X152179197Y-88895790D01*
X152179197Y-88895790D02*
X152226816Y-88705314D01*
X152226816Y-88705314D02*
X152274435Y-88610076D01*
X152274435Y-88610076D02*
X152369673Y-88514838D01*
X152369673Y-88514838D02*
X152512530Y-88467219D01*
X152512530Y-88467219D02*
X152607768Y-88467219D01*
X152607768Y-88467219D02*
X152750625Y-88514838D01*
X152750625Y-88514838D02*
X152798244Y-88562457D01*
X153798244Y-89371980D02*
X153750625Y-89419600D01*
X153750625Y-89419600D02*
X153607768Y-89467219D01*
X153607768Y-89467219D02*
X153512530Y-89467219D01*
X153512530Y-89467219D02*
X153369673Y-89419600D01*
X153369673Y-89419600D02*
X153274435Y-89324361D01*
X153274435Y-89324361D02*
X153226816Y-89229123D01*
X153226816Y-89229123D02*
X153179197Y-89038647D01*
X153179197Y-89038647D02*
X153179197Y-88895790D01*
X153179197Y-88895790D02*
X153226816Y-88705314D01*
X153226816Y-88705314D02*
X153274435Y-88610076D01*
X153274435Y-88610076D02*
X153369673Y-88514838D01*
X153369673Y-88514838D02*
X153512530Y-88467219D01*
X153512530Y-88467219D02*
X153607768Y-88467219D01*
X153607768Y-88467219D02*
X153750625Y-88514838D01*
X153750625Y-88514838D02*
X153798244Y-88562457D01*
X153222054Y-91719600D02*
X153364911Y-91767219D01*
X153364911Y-91767219D02*
X153603006Y-91767219D01*
X153603006Y-91767219D02*
X153698244Y-91719600D01*
X153698244Y-91719600D02*
X153745863Y-91671980D01*
X153745863Y-91671980D02*
X153793482Y-91576742D01*
X153793482Y-91576742D02*
X153793482Y-91481504D01*
X153793482Y-91481504D02*
X153745863Y-91386266D01*
X153745863Y-91386266D02*
X153698244Y-91338647D01*
X153698244Y-91338647D02*
X153603006Y-91291028D01*
X153603006Y-91291028D02*
X153412530Y-91243409D01*
X153412530Y-91243409D02*
X153317292Y-91195790D01*
X153317292Y-91195790D02*
X153269673Y-91148171D01*
X153269673Y-91148171D02*
X153222054Y-91052933D01*
X153222054Y-91052933D02*
X153222054Y-90957695D01*
X153222054Y-90957695D02*
X153269673Y-90862457D01*
X153269673Y-90862457D02*
X153317292Y-90814838D01*
X153317292Y-90814838D02*
X153412530Y-90767219D01*
X153412530Y-90767219D02*
X153650625Y-90767219D01*
X153650625Y-90767219D02*
X153793482Y-90814838D01*
X154793482Y-91671980D02*
X154745863Y-91719600D01*
X154745863Y-91719600D02*
X154603006Y-91767219D01*
X154603006Y-91767219D02*
X154507768Y-91767219D01*
X154507768Y-91767219D02*
X154364911Y-91719600D01*
X154364911Y-91719600D02*
X154269673Y-91624361D01*
X154269673Y-91624361D02*
X154222054Y-91529123D01*
X154222054Y-91529123D02*
X154174435Y-91338647D01*
X154174435Y-91338647D02*
X154174435Y-91195790D01*
X154174435Y-91195790D02*
X154222054Y-91005314D01*
X154222054Y-91005314D02*
X154269673Y-90910076D01*
X154269673Y-90910076D02*
X154364911Y-90814838D01*
X154364911Y-90814838D02*
X154507768Y-90767219D01*
X154507768Y-90767219D02*
X154603006Y-90767219D01*
X154603006Y-90767219D02*
X154745863Y-90814838D01*
X154745863Y-90814838D02*
X154793482Y-90862457D01*
X155698244Y-91767219D02*
X155222054Y-91767219D01*
X155222054Y-91767219D02*
X155222054Y-90767219D01*
X145122054Y-95019600D02*
X145264911Y-95067219D01*
X145264911Y-95067219D02*
X145503006Y-95067219D01*
X145503006Y-95067219D02*
X145598244Y-95019600D01*
X145598244Y-95019600D02*
X145645863Y-94971980D01*
X145645863Y-94971980D02*
X145693482Y-94876742D01*
X145693482Y-94876742D02*
X145693482Y-94781504D01*
X145693482Y-94781504D02*
X145645863Y-94686266D01*
X145645863Y-94686266D02*
X145598244Y-94638647D01*
X145598244Y-94638647D02*
X145503006Y-94591028D01*
X145503006Y-94591028D02*
X145312530Y-94543409D01*
X145312530Y-94543409D02*
X145217292Y-94495790D01*
X145217292Y-94495790D02*
X145169673Y-94448171D01*
X145169673Y-94448171D02*
X145122054Y-94352933D01*
X145122054Y-94352933D02*
X145122054Y-94257695D01*
X145122054Y-94257695D02*
X145169673Y-94162457D01*
X145169673Y-94162457D02*
X145217292Y-94114838D01*
X145217292Y-94114838D02*
X145312530Y-94067219D01*
X145312530Y-94067219D02*
X145550625Y-94067219D01*
X145550625Y-94067219D02*
X145693482Y-94114838D01*
X146122054Y-95067219D02*
X146122054Y-94067219D01*
X146122054Y-94067219D02*
X146360149Y-94067219D01*
X146360149Y-94067219D02*
X146503006Y-94114838D01*
X146503006Y-94114838D02*
X146598244Y-94210076D01*
X146598244Y-94210076D02*
X146645863Y-94305314D01*
X146645863Y-94305314D02*
X146693482Y-94495790D01*
X146693482Y-94495790D02*
X146693482Y-94638647D01*
X146693482Y-94638647D02*
X146645863Y-94829123D01*
X146645863Y-94829123D02*
X146598244Y-94924361D01*
X146598244Y-94924361D02*
X146503006Y-95019600D01*
X146503006Y-95019600D02*
X146360149Y-95067219D01*
X146360149Y-95067219D02*
X146122054Y-95067219D01*
X147074435Y-94781504D02*
X147550625Y-94781504D01*
X146979197Y-95067219D02*
X147312530Y-94067219D01*
X147312530Y-94067219D02*
X147645863Y-95067219D01*
X151993482Y-95014838D02*
X151898244Y-94967219D01*
X151898244Y-94967219D02*
X151755387Y-94967219D01*
X151755387Y-94967219D02*
X151612530Y-95014838D01*
X151612530Y-95014838D02*
X151517292Y-95110076D01*
X151517292Y-95110076D02*
X151469673Y-95205314D01*
X151469673Y-95205314D02*
X151422054Y-95395790D01*
X151422054Y-95395790D02*
X151422054Y-95538647D01*
X151422054Y-95538647D02*
X151469673Y-95729123D01*
X151469673Y-95729123D02*
X151517292Y-95824361D01*
X151517292Y-95824361D02*
X151612530Y-95919600D01*
X151612530Y-95919600D02*
X151755387Y-95967219D01*
X151755387Y-95967219D02*
X151850625Y-95967219D01*
X151850625Y-95967219D02*
X151993482Y-95919600D01*
X151993482Y-95919600D02*
X152041101Y-95871980D01*
X152041101Y-95871980D02*
X152041101Y-95538647D01*
X152041101Y-95538647D02*
X151850625Y-95538647D01*
X152469673Y-95967219D02*
X152469673Y-94967219D01*
X152469673Y-94967219D02*
X153041101Y-95967219D01*
X153041101Y-95967219D02*
X153041101Y-94967219D01*
X153517292Y-95967219D02*
X153517292Y-94967219D01*
X153517292Y-94967219D02*
X153755387Y-94967219D01*
X153755387Y-94967219D02*
X153898244Y-95014838D01*
X153898244Y-95014838D02*
X153993482Y-95110076D01*
X153993482Y-95110076D02*
X154041101Y-95205314D01*
X154041101Y-95205314D02*
X154088720Y-95395790D01*
X154088720Y-95395790D02*
X154088720Y-95538647D01*
X154088720Y-95538647D02*
X154041101Y-95729123D01*
X154041101Y-95729123D02*
X153993482Y-95824361D01*
X153993482Y-95824361D02*
X153898244Y-95919600D01*
X153898244Y-95919600D02*
X153755387Y-95967219D01*
X153755387Y-95967219D02*
X153517292Y-95967219D01*
D11*
%TO.C,R1*%
X144120000Y-92836359D02*
X144120000Y-93143641D01*
X144880000Y-92836359D02*
X144880000Y-93143641D01*
%TO.C,TP2*%
X148700000Y-92400000D02*
G75*
G02*
X146300000Y-92400000I-1200000J0D01*
G01*
X146300000Y-92400000D02*
G75*
G02*
X148700000Y-92400000I1200000J0D01*
G01*
%TO.C,TP4*%
X150600000Y-95400000D02*
G75*
G02*
X148200000Y-95400000I-1200000J0D01*
G01*
X148200000Y-95400000D02*
G75*
G02*
X150600000Y-95400000I1200000J0D01*
G01*
%TO.C,U3*%
X141792500Y-92640000D02*
X140292500Y-92640000D01*
X141792500Y-94360000D02*
X140292500Y-94360000D01*
X142242500Y-94380000D02*
X142242500Y-94100000D01*
X142522500Y-94100000D01*
X142242500Y-94380000D01*
G36*
X142242500Y-94380000D02*
G01*
X142242500Y-94100000D01*
X142522500Y-94100000D01*
X142242500Y-94380000D01*
G37*
%TO.C,R2*%
X144120000Y-91143641D02*
X144120000Y-90836359D01*
X144880000Y-91143641D02*
X144880000Y-90836359D01*
%TO.C,C1*%
X138882500Y-93392164D02*
X138882500Y-93607836D01*
X139602500Y-93392164D02*
X139602500Y-93607836D01*
%TO.C,TP3*%
X152700000Y-91300000D02*
G75*
G02*
X150300000Y-91300000I-1200000J0D01*
G01*
X150300000Y-91300000D02*
G75*
G02*
X152700000Y-91300000I1200000J0D01*
G01*
%TO.C,U2*%
X141792500Y-89640000D02*
X140292500Y-89640000D01*
X141792500Y-91360000D02*
X140292500Y-91360000D01*
X142242500Y-91380000D02*
X142242500Y-91100000D01*
X142522500Y-91100000D01*
X142242500Y-91380000D01*
G36*
X142242500Y-91380000D02*
G01*
X142242500Y-91100000D01*
X142522500Y-91100000D01*
X142242500Y-91380000D01*
G37*
%TO.C,TP1*%
X150600000Y-89000000D02*
G75*
G02*
X148200000Y-89000000I-1200000J0D01*
G01*
X148200000Y-89000000D02*
G75*
G02*
X150600000Y-89000000I1200000J0D01*
G01*
%TO.C,C2*%
X138882500Y-90392164D02*
X138882500Y-90607836D01*
X139602500Y-90392164D02*
X139602500Y-90607836D01*
D12*
%TO.C,J1*%
X156636000Y-89000000D02*
X156636000Y-90063000D01*
X156636000Y-89000000D02*
X159616000Y-89000000D01*
X156636000Y-95000000D02*
X156636000Y-93971000D01*
X156636000Y-95000000D02*
X159616000Y-95000000D01*
X161486000Y-93906000D02*
X161486000Y-90097000D01*
X155904370Y-94298000D02*
G75*
G02*
X155783630Y-94298000I-60370J0D01*
G01*
X155783630Y-94298000D02*
G75*
G02*
X155904370Y-94298000I60370J0D01*
G01*
%TD*%
M02*
